<?xml version="1.0" standalone="no"?>
<!DOCTYPE svg PUBLIC "-//W3C//DTD SVG 20010904//EN"
 "http://www.w3.org/TR/2001/REC-SVG-20010904/DTD/svg10.dtd">
<svg version="1.0" xmlns="http://www.w3.org/2000/svg"
 width="200.000000pt" height="200.000000pt" viewBox="0 0 200.000000 200.000000"
 preserveAspectRatio="xMidYMid meet">
<g transform="translate(0.000000,200.000000) scale(0.100000,-0.100000)"
fill="#000000" stroke="none">
<path d="M110 1277 l-35 -12 3 -68 c2 -64 5 -70 40 -105 35 -33 41 -47 61
-140 35 -161 85 -211 252 -253 158 -41 291 -9 388 90 27 28 58 70 68 93 10 24
32 70 48 103 28 56 32 60 65 60 35 0 36 -1 88 -107 87 -177 171 -241 338 -255
137 -11 293 44 345 122 15 24 37 86 54 152 15 61 34 118 43 127 10 8 27 24 40
36 18 17 22 30 22 85 l0 64 -42 12 c-65 17 -483 7 -578 -15 -41 -9 -117 -26
-168 -38 -103 -23 -177 -22 -317 6 -276 54 -290 56 -487 55 -124 0 -205 -4
-228 -12z m571 -105 c80 -20 143 -52 153 -78 18 -48 -19 -162 -80 -241 -68
-90 -310 -102 -426 -21 -29 20 -50 75 -68 177 -20 111 6 173 75 184 59 10 271
-3 346 -21z m1026 5 c38 -20 48 -58 40 -150 -8 -92 -35 -165 -71 -192 -52 -38
-133 -60 -221 -59 -129 0 -204 46 -251 152 -30 66 -42 156 -24 177 24 29 73
48 180 72 129 28 294 28 347 0z"/>
</g>
</svg>
